<?xml version="1.0" encoding="UTF-8"?>
<svg height="16px" viewBox="0 0 16 16" width="16px" xmlns="http://www.w3.org/2000/svg" xmlns:xlink="http://www.w3.org/1999/xlink">
    <filter id="a" height="100%" width="100%" x="0%" y="0%">
        <feColorMatrix color-interpolation-filters="sRGB" values="0 0 0 0 1 0 0 0 0 1 0 0 0 0 1 0 0 0 1 0"/>
    </filter>
    <mask id="b">
        <g filter="url(#a)">
            <rect fill-opacity="0.05" height="19.2" width="19.2" x="-1.6" y="-1.6"/>
        </g>
    </mask>
    <radialGradient id="c" cx="63.999996" cy="194.190475" gradientTransform="matrix(4.727273 -0.00000079 0.0000003 1.636364 -230.545166 -205.7662)" gradientUnits="userSpaceOnUse" r="44">
        <stop offset="0" stop-color="#ffffff"/>
        <stop offset="1" stop-color="#ffffff" stop-opacity="0.094118"/>
    </radialGradient>
    <clipPath id="d">
        <rect height="152" width="192"/>
    </clipPath>
    <g mask="url(#b)">
        <g clip-path="url(#d)" transform="matrix(1 0 0 1 -168 -16)">
            <path d="m 116 116 h -88 v -78 h 88 z m 0 0" fill="url(#c)"/>
        </g>
    </g>
    <g fill="#241f31">
        <path d="m 2.1875 1 c -1.207031 0 -2.1875 1.015625 -2.1875 2.21875 v 9.5625 c 0 1.203125 0.980469 2.21875 2.1875 2.21875 h 11.625 c 1.207031 0 2.1875 -1.015625 2.1875 -2.21875 v -9.5625 c 0 -1.203125 -0.980469 -2.21875 -2.1875 -2.21875 z m 0 2 h 11.625 c 0.121094 0 0.1875 0.082031 0.1875 0.21875 v 9.5625 c 0 0.136719 -0.066406 0.21875 -0.1875 0.21875 h -11.625 c -0.121094 0 -0.1875 -0.082031 -0.1875 -0.21875 v -9.5625 c 0 -0.136719 0.066406 -0.21875 0.1875 -0.21875 z m 0 0"/>
        <path d="m 4.554688 4.269531 l 0.164062 1.445313 c 0.035156 0.300781 0.097656 0.601562 0.089844 0.90625 c 0 0.152344 -0.027344 0.308594 -0.101563 0.441406 c -0.035156 0.066406 -0.082031 0.128906 -0.144531 0.175781 c -0.058594 0.046875 -0.132812 0.078125 -0.207031 0.085938 c -0.105469 0.015625 -0.214844 -0.015625 -0.3125 -0.054688 c -0.101563 -0.039062 -0.199219 -0.085937 -0.308594 -0.101562 c -0.113281 -0.015625 -0.234375 0.003906 -0.34375 0.054687 c -0.105469 0.046875 -0.199219 0.125 -0.269531 0.21875 c -0.140625 0.191406 -0.191406 0.4375 -0.171875 0.671875 c 0.011719 0.179688 0.0625 0.363281 0.179687 0.503907 c 0.054688 0.070312 0.125 0.128906 0.207032 0.167968 c 0.082031 0.035156 0.175781 0.054688 0.265624 0.042969 c 0.125 -0.011719 0.238282 -0.078125 0.351563 -0.132813 c 0.058594 -0.027343 0.117187 -0.054687 0.179687 -0.070312 c 0.058594 -0.015625 0.125 -0.019531 0.1875 -0.003906 c 0.066407 0.011718 0.128907 0.050781 0.175782 0.097656 c 0.050781 0.046875 0.085937 0.105469 0.113281 0.167969 c 0.050781 0.128906 0.0625 0.265625 0.066406 0.402343 c 0.039063 0.820313 -0.023437 1.640626 -0.183593 2.441407 c 0.550781 0.207031 1.121093 0.359375 1.703124 0.453125 c 0.207032 0.03125 0.421876 0.058594 0.621094 -0.003906 c 0.097656 -0.03125 0.191406 -0.082032 0.265625 -0.160157 c 0.070313 -0.078125 0.117188 -0.175781 0.121094 -0.28125 c 0 -0.066406 -0.015625 -0.136719 -0.042969 -0.195312 c -0.023437 -0.0625 -0.058594 -0.121094 -0.09375 -0.179688 c -0.074218 -0.113281 -0.15625 -0.226562 -0.1875 -0.355469 c -0.03125 -0.128906 -0.015625 -0.265624 0.039063 -0.382812 c 0.058593 -0.121094 0.148437 -0.222656 0.257812 -0.292969 c 0.214844 -0.148437 0.488281 -0.191406 0.75 -0.1875 c 0.234375 0.003907 0.476563 0.042969 0.675781 0.167969 c 0.097657 0.0625 0.1875 0.148438 0.246094 0.246094 c 0.0625 0.101562 0.09375 0.21875 0.089844 0.335937 c -0.011719 0.171875 -0.101562 0.324219 -0.171875 0.480469 c -0.035156 0.078125 -0.066406 0.15625 -0.082031 0.238281 c -0.015625 0.085938 -0.011719 0.171875 0.015625 0.253907 c 0.042969 0.113281 0.140625 0.199218 0.25 0.25 c 0.109375 0.054687 0.230469 0.074218 0.351562 0.089843 c 0.726563 0.082031 1.484375 -0.101562 2.089844 -0.511719 l -0.242187 -1.546874 c -0.042969 -0.277344 -0.105469 -0.554688 -0.097657 -0.835938 c 0.003907 -0.140625 0.03125 -0.285156 0.097657 -0.40625 c 0.035156 -0.0625 0.078124 -0.117188 0.132812 -0.164062 c 0.054688 -0.046876 0.117188 -0.078126 0.1875 -0.09375 c 0.066406 -0.015626 0.132812 -0.011719 0.199219 0 c 0.066406 0.011718 0.128906 0.03125 0.191406 0.058593 c 0.125 0.046875 0.246094 0.105469 0.378906 0.125 c 0.121094 0.015625 0.25 -0.007812 0.359375 -0.058593 c 0.113282 -0.050782 0.210938 -0.132813 0.28125 -0.234376 c 0.148438 -0.195312 0.199219 -0.457031 0.167969 -0.703124 c -0.023437 -0.199219 -0.101563 -0.394532 -0.238281 -0.539063 c -0.070313 -0.074219 -0.152344 -0.132813 -0.246094 -0.171875 s -0.195312 -0.054688 -0.296875 -0.046875 c -0.132813 0.015625 -0.257813 0.070313 -0.382813 0.121094 c -0.0625 0.023437 -0.125 0.042969 -0.191406 0.054687 c -0.066406 0.011719 -0.132812 0.015625 -0.199218 0 c -0.097657 -0.019531 -0.1875 -0.082031 -0.25 -0.160156 s -0.105469 -0.171875 -0.125 -0.273438 c -0.042969 -0.199218 -0.011719 -0.402343 0.015624 -0.605468 c 0.097657 -0.671875 0.152344 -1.347656 0.164063 -2.027344 c -0.589844 -0.199219 -1.199219 -0.332031 -1.816406 -0.398438 c -0.179688 -0.015624 -0.363281 -0.03125 -0.535157 0.027344 c -0.085937 0.027344 -0.164062 0.074219 -0.226562 0.140625 c -0.0625 0.0625 -0.105469 0.148438 -0.113281 0.238281 c -0.007813 0.066407 0.003906 0.136719 0.03125 0.199219 c 0.023437 0.066407 0.058593 0.125 0.097656 0.179688 c 0.074219 0.113281 0.164063 0.222656 0.210937 0.347656 c 0.046876 0.140625 0.042969 0.292969 -0.007812 0.433594 c -0.046875 0.136719 -0.140625 0.253906 -0.257812 0.347656 c -0.230469 0.179687 -0.535157 0.234375 -0.828126 0.222656 c -0.238281 -0.011719 -0.480468 -0.066406 -0.671874 -0.210937 c -0.097657 -0.074219 -0.175782 -0.167969 -0.226563 -0.273438 c -0.054687 -0.109375 -0.074219 -0.234375 -0.054687 -0.351562 c 0.027343 -0.167969 0.132812 -0.3125 0.21875 -0.457032 c 0.042968 -0.074218 0.085937 -0.152343 0.109374 -0.234374 c 0.023438 -0.082032 0.03125 -0.167969 0.011719 -0.253907 c -0.019531 -0.082031 -0.070312 -0.15625 -0.132812 -0.214843 c -0.066407 -0.058594 -0.144531 -0.097657 -0.226563 -0.121094 c -0.164062 -0.050782 -0.339844 -0.039063 -0.511718 -0.019532 c -0.625 0.070313 -1.238282 0.234376 -1.8125 0.480469 z m 0 0"/>
    </g>
</svg>
