<?xml version="1.0" encoding="UTF-8"?>
<svg height="128px" viewBox="0 0 128 128" width="128px" xmlns="http://www.w3.org/2000/svg" xmlns:xlink="http://www.w3.org/1999/xlink">
    <filter id="a" height="100%" width="100%" x="0%" y="0%">
        <feColorMatrix color-interpolation-filters="sRGB" values="0 0 0 0 1 0 0 0 0 1 0 0 0 0 1 0 0 0 1 0"/>
    </filter>
    <linearGradient id="b" gradientUnits="userSpaceOnUse" x1="12.000336" x2="116.000336" y1="63.999977" y2="63.999977">
        <stop offset="0" stop-color="#77767b"/>
        <stop offset="0.05" stop-color="#c0bfbc"/>
        <stop offset="0.1" stop-color="#9a9996"/>
        <stop offset="0.899999" stop-color="#9a9996"/>
        <stop offset="0.95" stop-color="#c0bfbc"/>
        <stop offset="1" stop-color="#77767b"/>
    </linearGradient>
    <mask id="c">
        <g filter="url(#a)">
            <rect fill-opacity="0.05" height="153.6" width="153.6" x="-12.8" y="-12.8"/>
        </g>
    </mask>
    <radialGradient id="d" cx="63.999996" cy="194.190475" gradientTransform="matrix(4.727273 -0.00000079 0.0000003 1.636364 -230.545166 -205.7662)" gradientUnits="userSpaceOnUse" r="44">
        <stop offset="0" stop-color="#ffffff"/>
        <stop offset="1" stop-color="#ffffff" stop-opacity="0.094118"/>
    </radialGradient>
    <clipPath id="e">
        <rect height="152" width="192"/>
    </clipPath>
    <path d="m 20 22 h 88 c 4.417969 0 8 3.582031 8 8 v 78 c 0 4.417969 -3.582031 8 -8 8 h -88 c -4.417969 0 -8 -3.582031 -8 -8 v -78 c 0 -4.417969 3.582031 -8 8 -8 z m 0 0" fill="url(#b)"/>
    <path d="m 20 12 h 88 c 4.417969 0 8 3.582031 8 8 v 80 c 0 4.417969 -3.582031 8 -8 8 h -88 c -4.417969 0 -8 -3.582031 -8 -8 v -80 c 0 -4.417969 3.582031 -8 8 -8 z m 0 0" fill="#deddda"/>
    <path d="m 20 104 h 88 c 2.210938 0 4 -1.789062 4 -4 v -80 c 0 -2.210938 -1.789062 -4 -4 -4 h -88 c -2.207031 0 -4 1.789062 -4 4 v 80 c 0 2.210938 1.792969 4 4 4 z m 0 0" fill="#241f31"/>
    <g mask="url(#c)">
        <g clip-path="url(#e)" transform="matrix(1 0 0 1 -8 -16)">
            <path d="m 116 116 h -88 v -78 h 88 z m 0 0" fill="url(#d)"/>
        </g>
    </g>
    <g fill="#62c9ea">
        <path d="m 82.492188 61.359375 l 8.214843 14.234375 l -3.773437 0.035156 l -2.195313 -3.824218 l -2.207031 3.800781 h -1.875 l -0.960938 -1.660157 l 3.144532 -5.410156 l -2.234375 -3.886718 z m 0 0" fill-rule="evenodd"/>
        <path d="m 85.457031 55.5 l -8.214843 14.230469 l -1.917969 -3.253907 l 2.214843 -3.808593 l -4.398437 -0.011719 l -0.9375 -1.625 l 0.957031 -1.664062 l 6.257813 0.019531 l 2.25 -3.878907 z m 0 0" fill-rule="evenodd"/>
        <path d="m 86.089844 66.875 h 16.429687 l -1.855469 3.289062 l -4.40625 -0.015624 l 2.1875 3.816406 l -0.9375 1.625 h -1.917968 l -3.113282 -5.429688 l -4.484374 -0.007812 z m 0 0" fill-rule="evenodd"/>
        <path d="m 95.652344 60.640625 l -8.214844 -14.234375 l 3.777344 -0.035156 l 2.191406 3.824218 l 2.207031 -3.800781 h 1.878907 l 0.960937 1.660157 l -3.148437 5.410156 l 2.234374 3.886718 z m 0 0" fill-rule="evenodd"/>
        <path d="m 82.492188 61.359375 l 8.214843 14.234375 l -3.773437 0.035156 l -2.195313 -3.824218 l -2.207031 3.800781 h -1.875 l -0.960938 -1.660157 l 3.144532 -5.410156 l -2.234375 -3.886718 z m 0 0" fill-rule="evenodd"/>
        <path d="m 92.035156 55.089844 h -16.433594 l 1.859376 -3.289063 l 4.40625 0.011719 l -2.1875 -3.8125 l 0.9375 -1.625 l 1.917968 -0.003906 l 3.113282 5.433594 l 4.484374 0.007812 z m 0 0" fill-rule="evenodd"/>
        <path d="m 92.675781 66.496094 l 8.21875 -14.226563 l 1.917969 3.25 l -2.214844 3.8125 l 4.398438 0.011719 l 0.9375 1.625 l -0.957032 1.660156 l -6.261718 -0.019531 l -2.25 3.878906 z m 0 0" fill-rule="evenodd"/>
        <path d="m 56.796875 40.691406 v 5.808594 h 0.667969 c 1.949218 0 2.902344 1.171875 2.902344 3.210938 v 6.429687 c 0 2.992187 0.835937 4.253906 2.664062 4.859375 c -1.828125 0.609375 -2.664062 1.867188 -2.664062 4.859375 v 6.578125 c 0 2.039062 -0.953126 3.210938 -2.902344 3.210938 h -0.667969 v 5.660156 h 1.394531 c 4.972656 0 7.515625 -2.777344 7.515625 -7.765625 v -7.511719 c 0 -1.390625 0.675781 -2.046875 1.75 -2.042969 h 1.804688 v -5.789062 l -1.804688 0.003906 c -1.074219 0 -1.75 -0.652344 -1.75 -2.039063 v -7.703124 c 0 -4.992188 -2.542969 -7.769532 -7.515625 -7.769532 z m 0 0"/>
        <path d="m 27.027344 67.621094 l 0.511718 4.453125 c 0.105469 0.933593 0.289063 1.859375 0.273438 2.796875 c -0.007812 0.472656 -0.082031 0.949218 -0.308594 1.359375 c -0.113281 0.207031 -0.261718 0.394531 -0.449218 0.535156 c -0.183594 0.144531 -0.40625 0.246094 -0.640626 0.273437 c -0.328124 0.039063 -0.65625 -0.058593 -0.964843 -0.175781 c -0.308594 -0.121093 -0.613281 -0.261719 -0.941407 -0.308593 c -0.359374 -0.054688 -0.734374 0.007812 -1.0625 0.160156 c -0.328124 0.152344 -0.613281 0.394531 -0.832031 0.683594 c -0.433593 0.582031 -0.585937 1.339843 -0.535156 2.0625 c 0.039063 0.558593 0.203125 1.117187 0.554687 1.550781 c 0.175782 0.21875 0.394532 0.398437 0.648438 0.515625 c 0.25 0.121094 0.535156 0.171875 0.8125 0.140625 c 0.386719 -0.042969 0.734375 -0.246094 1.085938 -0.414063 c 0.175781 -0.085937 0.355468 -0.164062 0.546874 -0.210937 c 0.1875 -0.046875 0.386719 -0.0625 0.578126 -0.019531 c 0.207031 0.046874 0.394531 0.15625 0.542968 0.304687 c 0.152344 0.148437 0.265625 0.328125 0.347656 0.523437 c 0.160157 0.390626 0.1875 0.816407 0.207032 1.238282 c 0.117187 2.519531 -0.074219 5.050781 -0.5625 7.519531 c 1.695312 0.632813 3.453125 1.097656 5.242187 1.390625 c 0.632813 0.101562 1.296875 0.183594 1.910157 -0.007812 c 0.308593 -0.09375 0.597656 -0.257813 0.820312 -0.496094 c 0.21875 -0.234375 0.359375 -0.546875 0.371094 -0.867188 c 0.003906 -0.207031 -0.046875 -0.414062 -0.125 -0.605468 c -0.078125 -0.191407 -0.183594 -0.371094 -0.292969 -0.546876 c -0.226563 -0.351562 -0.476563 -0.695312 -0.578125 -1.097656 c -0.097656 -0.394531 -0.042969 -0.816406 0.128906 -1.183594 c 0.171875 -0.367187 0.453125 -0.675781 0.785156 -0.902343 c 0.667969 -0.457031 1.507813 -0.582031 2.316407 -0.570313 c 0.722656 0.011719 1.464843 0.136719 2.078125 0.519532 c 0.304687 0.195312 0.574218 0.449218 0.757812 0.757812 c 0.1875 0.3125 0.289063 0.675781 0.269532 1.035156 c -0.027344 0.523438 -0.300782 0.996094 -0.519532 1.472656 c -0.109375 0.238282 -0.207031 0.484376 -0.253906 0.742188 s -0.042969 0.53125 0.050781 0.777344 c 0.128907 0.347656 0.429688 0.613281 0.765625 0.773437 c 0.335938 0.160157 0.707032 0.230469 1.078125 0.273438 c 2.246094 0.257812 4.578125 -0.3125 6.449219 -1.578125 l -0.753906 -4.761719 c -0.136719 -0.855469 -0.324219 -1.710937 -0.296875 -2.578125 c 0.011719 -0.433594 0.09375 -0.871094 0.300781 -1.253906 c 0.105469 -0.1875 0.242188 -0.363282 0.40625 -0.503906 c 0.167969 -0.136719 0.363281 -0.238282 0.578125 -0.285157 c 0.199219 -0.046875 0.410156 -0.039062 0.613281 -0.003906 c 0.199219 0.039063 0.394532 0.105469 0.585938 0.179687 c 0.382812 0.148438 0.761718 0.332032 1.167968 0.386719 c 0.378907 0.050781 0.765626 -0.019531 1.109376 -0.179687 s 0.644531 -0.414063 0.871093 -0.71875 c 0.453125 -0.609375 0.605469 -1.40625 0.515625 -2.160156 c -0.074218 -0.617188 -0.316406 -1.222657 -0.742187 -1.671876 c -0.210938 -0.226562 -0.46875 -0.410156 -0.757813 -0.527343 c -0.285156 -0.117188 -0.597656 -0.171875 -0.90625 -0.140625 c -0.410156 0.039062 -0.792968 0.21875 -1.175781 0.367187 c -0.195313 0.074219 -0.390625 0.140625 -0.59375 0.175781 c -0.203125 0.039063 -0.414063 0.046876 -0.613281 0 c -0.304688 -0.066406 -0.578125 -0.253906 -0.773438 -0.496093 c -0.199218 -0.242188 -0.324218 -0.535157 -0.386718 -0.839844 c -0.132813 -0.613281 -0.035157 -1.246094 0.054687 -1.863281 c 0.300781 -2.070313 0.46875 -4.160156 0.503906 -6.25 c -1.8125 -0.613282 -3.695312 -1.023438 -5.597656 -1.222656 c -0.550781 -0.058594 -1.121094 -0.097657 -1.648437 0.078124 c -0.261719 0.089844 -0.507813 0.230469 -0.699219 0.429688 c -0.191407 0.203125 -0.324219 0.460938 -0.351563 0.738281 c -0.019531 0.207031 0.019532 0.421875 0.097656 0.617188 c 0.070313 0.195312 0.179688 0.378906 0.296876 0.554687 c 0.234374 0.347656 0.511718 0.679688 0.652343 1.074219 c 0.152344 0.421875 0.136719 0.898437 -0.015625 1.324219 c -0.15625 0.421875 -0.441406 0.792968 -0.796875 1.070312 c -0.707031 0.554688 -1.652343 0.730469 -2.550781 0.691406 c -0.734375 -0.035156 -1.488281 -0.210937 -2.078125 -0.652343 c -0.292969 -0.222657 -0.539063 -0.511719 -0.699219 -0.84375 c -0.15625 -0.335938 -0.222656 -0.714844 -0.160156 -1.078125 c 0.082031 -0.519532 0.40625 -0.960938 0.675781 -1.414063 c 0.132813 -0.226562 0.257813 -0.460937 0.332031 -0.714843 c 0.078126 -0.253907 0.101563 -0.523438 0.039063 -0.78125 c -0.0625 -0.257813 -0.214844 -0.488282 -0.414063 -0.664063 c -0.195312 -0.175781 -0.4375 -0.300781 -0.691406 -0.375 c -0.511718 -0.152344 -1.054687 -0.113281 -1.582031 -0.054687 c -1.917969 0.214843 -3.808594 0.714843 -5.582031 1.472656 z m 0 0"/>
        <path d="m 27.027344 31.390625 l 0.511718 4.453125 c 0.105469 0.933594 0.289063 1.859375 0.273438 2.796875 c -0.007812 0.472656 -0.082031 0.949219 -0.308594 1.359375 c -0.113281 0.207031 -0.261718 0.394531 -0.449218 0.535156 c -0.183594 0.144532 -0.40625 0.246094 -0.640626 0.273438 c -0.328124 0.039062 -0.65625 -0.058594 -0.964843 -0.175782 c -0.308594 -0.121093 -0.613281 -0.261718 -0.941407 -0.308593 c -0.359374 -0.054688 -0.730468 0.007812 -1.0625 0.160156 c -0.328124 0.152344 -0.613281 0.394531 -0.832031 0.683594 c -0.433593 0.582031 -0.585937 1.339843 -0.535156 2.066406 c 0.039063 0.554687 0.203125 1.113281 0.554687 1.546875 c 0.175782 0.21875 0.394532 0.398438 0.648438 0.515625 c 0.253906 0.121094 0.535156 0.171875 0.8125 0.140625 c 0.386719 -0.042969 0.734375 -0.246094 1.085938 -0.414062 c 0.175781 -0.085938 0.355468 -0.164063 0.546874 -0.210938 c 0.1875 -0.046875 0.386719 -0.0625 0.578126 -0.019531 c 0.207031 0.046875 0.394531 0.15625 0.542968 0.304687 c 0.152344 0.148438 0.265625 0.328125 0.347656 0.523438 c 0.160157 0.390625 0.1875 0.816406 0.207032 1.238281 c 0.117187 2.519531 -0.074219 5.050781 -0.5625 7.519531 c 1.695312 0.632813 3.453125 1.097656 5.242187 1.390625 c 0.632813 0.101563 1.296875 0.183594 1.910157 -0.007812 c 0.308593 -0.09375 0.597656 -0.257813 0.820312 -0.496094 c 0.21875 -0.234375 0.359375 -0.546875 0.371094 -0.867187 c 0.003906 -0.207032 -0.046875 -0.414063 -0.125 -0.605469 c -0.078125 -0.191407 -0.183594 -0.371094 -0.292969 -0.546875 c -0.226563 -0.351563 -0.476563 -0.695313 -0.578125 -1.097656 c -0.097656 -0.390626 -0.042969 -0.816407 0.128906 -1.183594 c 0.171875 -0.367188 0.453125 -0.675782 0.785156 -0.902344 c 0.667969 -0.457031 1.507813 -0.582031 2.316407 -0.570312 c 0.722656 0.011718 1.464843 0.136718 2.078125 0.519531 c 0.304687 0.195312 0.574218 0.449219 0.757812 0.757812 c 0.1875 0.3125 0.289063 0.675781 0.269532 1.035157 c -0.027344 0.523437 -0.300782 0.996093 -0.519532 1.472656 c -0.109375 0.238281 -0.207031 0.484375 -0.253906 0.742187 c -0.046875 0.257813 -0.042969 0.53125 0.050781 0.777344 c 0.128907 0.347656 0.429688 0.613281 0.765625 0.773437 c 0.335938 0.160157 0.707032 0.230469 1.078125 0.273438 c 2.246094 0.257812 4.578125 -0.3125 6.449219 -1.578125 l -0.753906 -4.761719 c -0.136719 -0.855468 -0.324219 -1.710937 -0.296875 -2.578125 c 0.011719 -0.433593 0.09375 -0.871093 0.300781 -1.253906 c 0.105469 -0.1875 0.242188 -0.363281 0.40625 -0.503906 c 0.167969 -0.136719 0.363281 -0.238281 0.578125 -0.285157 c 0.199219 -0.046874 0.410156 -0.039062 0.613281 -0.003906 c 0.199219 0.039063 0.394532 0.105469 0.585938 0.179688 c 0.382812 0.148437 0.761718 0.332031 1.167968 0.386718 c 0.378907 0.050782 0.765626 -0.019531 1.109376 -0.179687 s 0.644531 -0.414063 0.871093 -0.71875 c 0.453125 -0.605469 0.605469 -1.40625 0.515625 -2.160156 c -0.074218 -0.617188 -0.316406 -1.222657 -0.742187 -1.671875 c -0.210938 -0.226563 -0.46875 -0.410156 -0.757813 -0.527344 c -0.285156 -0.117188 -0.597656 -0.171875 -0.90625 -0.140625 c -0.410156 0.039063 -0.792968 0.21875 -1.175781 0.367187 c -0.195313 0.074219 -0.390625 0.140626 -0.59375 0.175782 c -0.203125 0.039062 -0.410156 0.046875 -0.613281 0 c -0.304688 -0.066406 -0.578125 -0.253906 -0.773438 -0.496094 c -0.195312 -0.242188 -0.324218 -0.535156 -0.386718 -0.839844 c -0.132813 -0.613281 -0.035157 -1.246094 0.054687 -1.863281 c 0.300781 -2.070313 0.46875 -4.160156 0.503906 -6.25 c -1.8125 -0.613281 -3.695312 -1.023437 -5.597656 -1.222656 c -0.550781 -0.058594 -1.121094 -0.097657 -1.648437 0.078125 c -0.261719 0.089844 -0.507813 0.230468 -0.699219 0.429687 c -0.191407 0.203125 -0.324219 0.460938 -0.351563 0.738281 c -0.019531 0.210938 0.019532 0.421876 0.097656 0.617188 c 0.070313 0.195312 0.179688 0.378906 0.296876 0.554688 c 0.234374 0.347656 0.511718 0.679687 0.652343 1.074218 c 0.152344 0.421875 0.136719 0.898438 -0.015625 1.324219 c -0.15625 0.421875 -0.441406 0.792969 -0.796875 1.070313 c -0.707031 0.554687 -1.652343 0.730468 -2.550781 0.691406 c -0.734375 -0.035156 -1.488281 -0.210938 -2.078125 -0.652344 c -0.292969 -0.222656 -0.539063 -0.511719 -0.699219 -0.84375 c -0.15625 -0.332031 -0.222656 -0.714844 -0.160156 -1.078125 c 0.082031 -0.519531 0.40625 -0.960937 0.675781 -1.414063 c 0.132813 -0.226562 0.257813 -0.460937 0.332031 -0.714843 c 0.078126 -0.253907 0.101563 -0.523438 0.039063 -0.78125 c -0.0625 -0.257813 -0.214844 -0.488281 -0.414063 -0.664063 c -0.195312 -0.175781 -0.4375 -0.300781 -0.691406 -0.375 c -0.511718 -0.152344 -1.054687 -0.113281 -1.582031 -0.054687 c -1.917969 0.214843 -3.808594 0.714843 -5.582031 1.472656 z m 0 0"/>
    </g>
</svg>
